<?xml version='1.0' encoding='UTF-8' standalone='no'?>
<!-- Created with Fritzing (http://www.fritzing.org/) -->
<svg xmlns="http://www.w3.org/2000/svg" y="0in" baseProfile="tiny" width="0.42917in" viewBox="0 0 429.17 97.1"  height="0.0971in" version="1.2" x="0in">
    <desc >
        <referenceFile >resistor_220.svg</referenceFile>
    </desc>
    <g  id="breadboard" gorn="0.1">
        <rect y="35.9" fill="none" width="10"  id="connector0pin" height="10" gorn="0.1.0" x="5"/>
        <rect y="35.9" fill="none" width="10"  id="connector1pin" height="10" gorn="0.1.1" x="414.17"/>
        <line fill="none" stroke="#8C8C8C" stroke-width="29.1"  id="connector0leg" stroke-linecap="round" y1="50.45" gorn="0.1.2" y2="50.45" x1="14.55" x2="29.1"/>
        <line fill="none" stroke="#8C8C8C" stroke-width="29.1"  id="connector1leg" stroke-linecap="round" y1="50.45" gorn="0.1.3" y2="50.45" x1="414.62" x2="400.07"/>
        <path fill="none" stroke="#8C8C8C" stroke-width="29.1"  d="M14.55,50.45l393.98,0"/>
        <path fill="#D9B477"  id="body" gorn="0.1.5" d="M142.33,6.88c-5,-2.3,-13.6,-4.1,-19.1,-4.1l-27.6,0c-5.5,0,-10,4.5,-10,10l0,74.39c0,5.51,4.5,10,10,10l27.6,0c5.5,0,14.1,-1.89,19.1,-4.1l1,-0.49c5,-2.3,13.6,-4.1,19.1,-4.1l99.8,0c5.51,0,14.09,1.89,19.09,4.1l1.01,0.49c5,2.3,13.58,4.1,19.1,4.1l27.6,0c5.52,0,10,-4.49,10,-10L339.03,12.78c0,-5.5,-4.48,-10,-10,-10l-27.6,0c-5.52,0,-14.1,1.9,-19.1,4.1l-1.01,0.5c-5,2.3,-13.58,4.1,-19.09,4.1l-99.8,0c-5.5,0,-14.1,-1.9,-19.1,-4.1L142.33,6.88z"/>
        <rect y="2.69" fill="#ad9f4e" width="9.76"  id="gold_band" height="94.38" gorn="0.1.6" x="305.82"/>
        <rect y="11.48" fill="#8a3d06" width="25.7"  id="band_rd_multiplier" height="76.9" gorn="0.1.7" x="224.62"/>
        <rect y="11.48" fill="#ff4d00" width="25.7"  id="band_2_nd" height="76.9" gorn="0.1.8" x="173.23"/>
        <path fill="#ff4d00"  id="band_1_st" gorn="0.1.9" d="M147.62,8.88c-1.6,-0.5,-3.1,-1,-4.3,-1.6l-1,-0.5c-5,-2.29,-13.6,-4.1,-19.1,-4.1l-1.2,0l0,94.39l1.2,0c5.5,0,14.1,-1.89,19.1,-4.1l1,-0.49c1.2,-0.62,2.7,-1.11,4.3,-1.6L147.62,8.88z"/>
        <path  id="Shadow" gorn="0.1.10" d="M329.32,56.8L329.32,56.8c0,5.27,-1.81,9.71,-4.1,9.71l-26.7,0c-5.28,0,-13.58,-0.78,-18.51,-1.7L279,64.59c-4.79,-0.9,-13.18,-1.7,-18.52,-1.7L164,62.89c-5.3,0,-13.6,0.8,-18.5,1.7l-1,0.21c-4.8,0.91,-13.1,1.7,-18.5,1.7l-4.4,0l-13.9,0l-4.3,0c-5.3,0,-9.7,4.08,-9.7,8.96l0,3.43L93.7,81.1l0,2.4c0,5,4.4,8.96,9.7,8.96l22.5,0c5.3,0,13.6,-1.7,18.5,-3.71l1,-0.39c4.8,-1.96,13.2,-3.68,18.5,-3.68l96.48,0c5.27,0,13.57,1.72,18.53,3.69l1.03,0.39c4.79,2.01,13.12,3.71,18.52,3.71l30.9,0c5.29,0,9.71,-4.1,9.71,-8.96L339.07,76L339.07,62.49L339.07,36.88C335.22,38.38,329.32,42.58,329.32,56.8z" opacity="0.3"/>
        <rect y="48.38" width="9.76"  id="ShadowExtra" height="43.79" gorn="0.1.11" opacity="0.4" x="305.82"/>
        <path fill="#FFFFFF"  id="ReflexRight" gorn="0.1.12" d="M274.32,15.08c3.19,0,6.82,-1.4,9.2,-2.4c2.8,-1.1,8.01,-2,13.42,-2l20.29,0c3.12,0,3.12,3.4,3.12,5.2c0,1.8,-0.21,5.3,-3.12,5.3l-42.5,0c-1.49,0,-3.2,-1.6,-3.2,-3.11C271.62,16.88,272.62,15.08,274.32,15.08z" opacity="0.25"/>
        <circle fill="#FFFFFF"  id="ReflexLeft" r="6" gorn="0.1.13" cx="97.22" opacity="0.35" cy="15.78"/>
        <rect y="5.88" fill="#FFFF33" width="9.76"  id="Reflex_gold" height="22.5" gorn="0.1.14" opacity="0.5" x="305.82"/>
        <rect y="10.88" fill="#FFFFFF" width="9.76"  id="Reflex_extra" height="10.4" gorn="0.1.15" opacity="0.5" x="305.82"/>
    </g>
</svg>
