<?xml version='1.0' encoding='utf-8'?>
<svg xmlns="http://www.w3.org/2000/svg" viewBox="0 0 42.917 9.71"  height="0.0971in" x="0" y="0" baseProfile="tiny" version="1.2" width="0.42917in">
    <desc>
        <referenceFile>resistor_220.svg</referenceFile>
    </desc>
    <g gorn="0.0"  id="breadboard">
        <rect gorn="0.0.0"  height="1" id="connector0pin" x="0.5" y="3.59" fill="none" width="1"/>
        <rect gorn="0.0.1"  height="1" id="connector1pin" x="41.417" y="3.59" fill="none" width="1"/>
        <line stroke="#8C8C8C" gorn="0.0.2"  id="connector0leg" stroke-linecap="round" y1="5.045" fill="none" y2="5.045" x1="1.455" x2="2.91" stroke-width="2.91"/>
        <line stroke="#8C8C8C" gorn="0.0.3"  id="connector1leg" stroke-linecap="round" y1="5.045" fill="none" y2="5.045" x1="41.462" x2="40.007" stroke-width="2.91"/>
        <path stroke="#8C8C8C" d="M1.455,5.045l39.398,0"  fill="none" stroke-width="2.91"/>
        <path d="M14.233,0.688c-0.5-0.23-1.36-0.41-1.91-0.41h-2.76c-0.55,0-1,0.45-1,1v7.439c0,0.551,0.45,1,1,1&#xd;&#xa;&#x9;&#x9;h2.76c0.55,0,1.41-0.189,1.91-0.41l0.1-0.049c0.5-0.23,1.36-0.41,1.91-0.41h9.98c0.551,0,1.409,0.189,1.909,0.41l0.101,0.049&#xd;&#xa;&#x9;&#x9;c0.5,0.23,1.358,0.41,1.91,0.41h2.76c0.552,0,1-0.449,1-1V1.278c0-0.55-0.448-1-1-1h-2.76c-0.552,0-1.41,0.19-1.91,0.41&#xd;&#xa;&#x9;&#x9;l-0.101,0.05c-0.5,0.23-1.358,0.41-1.909,0.41h-9.98c-0.55,0-1.41-0.19-1.91-0.41L14.233,0.688z" gorn="0.0.5"  id="body" fill="#D9B477"/>
        <rect gorn="0.0.6"  height="9.438" id="gold_band" x="30.582" y="0.269" fill="#AD9F4E" width="0.976"/>
        <rect gorn="0.0.7"  height="7.69" id="band_rd_multiplier" x="22.462" y="1.148" fill="#8A3D06" width="2.57"/>
        <rect gorn="0.0.8"  height="7.69" id="band_2_nd" x="17.323" y="1.148" fill="#C40808" width="2.57"/>
        <path d="M14.762,0.888c-0.16-0.05-0.31-0.1-0.43-0.16l-0.1-0.05c-0.5-0.229-1.36-0.41-1.91-0.41&#xd;&#xa;&#x9;&#x9;h-0.12v9.439h0.12c0.55,0,1.41-0.189,1.91-0.41l0.1-0.049c0.12-0.062,0.27-0.111,0.43-0.16V0.888z" gorn="0.0.9"  id="band_1_st" fill="#C40808"/>
        <path d="M32.932,5.68L32.932,5.68c0,0.527-0.181,0.971-0.41,0.971h-2.67&#xd;&#xa;&#x9;&#x9;c-0.528,0-1.358-0.078-1.851-0.17L27.9,6.459c-0.479-0.09-1.318-0.17-1.852-0.17H16.4c-0.53,0-1.36,0.08-1.85,0.17l-0.1,0.021&#xd;&#xa;&#x9;&#x9;c-0.48,0.091-1.31,0.17-1.85,0.17h-0.44h-1.39h-0.43c-0.53,0-0.97,0.408-0.97,0.896v0.343V8.11v0.24c0,0.5,0.44,0.896,0.97,0.896&#xd;&#xa;&#x9;&#x9;h2.25c0.53,0,1.36-0.17,1.85-0.371l0.1-0.039c0.48-0.196,1.32-0.368,1.85-0.368h9.648c0.527,0,1.357,0.172,1.853,0.369l0.103,0.039&#xd;&#xa;&#x9;&#x9;c0.479,0.201,1.312,0.371,1.852,0.371h3.09c0.529,0,0.971-0.41,0.971-0.896V7.6V6.249V3.688C33.522,3.838,32.932,4.258,32.932,5.68&#xd;&#xa;&#x9;&#x9;z" gorn="0.0.10"  id="Shadow" opacity="0.3"/>
        <rect gorn="0.0.11"  height="4.379" id="ShadowExtra" x="30.582" y="4.838" opacity="0.4" width="0.976"/>
        <path d="M27.432,1.508c0.319,0,0.682-0.14,0.92-0.24&#xd;&#xa;&#x9;&#x9;c0.28-0.11,0.801-0.2,1.342-0.2h2.029c0.312,0,0.312,0.34,0.312,0.52c0,0.18-0.021,0.53-0.312,0.53h-4.25&#xd;&#xa;&#x9;&#x9;c-0.149,0-0.32-0.16-0.32-0.311C27.162,1.688,27.262,1.508,27.432,1.508z" gorn="0.0.12"  id="ReflexRight" opacity="0.25" fill="#FFFFFF"/>
        <circle r="0.6" gorn="0.0.13"  id="ReflexLeft" opacity="0.35" fill="#FFFFFF" cx="9.722" cy="1.578"/>
        <rect gorn="0.0.14"  height="2.25" id="Reflex_gold" x="30.582" y="0.588" opacity="0.5" fill="#FFFF33" width="0.976"/>
        <rect gorn="0.0.15"  height="1.04" id="Reflex_extra" x="30.582" y="1.088" opacity="0.5" fill="#FFFFFF" width="0.976"/>
    </g>
</svg>
