<?xml version='1.0' encoding='utf-8'?>
<!DOCTYPE svg>
<!-- This xml file is generated through a template. Please don't edit it directly -->
<svg xmlns="http://www.w3.org/2000/svg" gorn="0" version="1.1" xml:space="preserve" width="32px" xmlns:xml="http://www.w3.org/XML/1998/namespace" x="0px" viewBox="0 0 32 32" y="0px"  height="32px" id="Layer_1">
    <desc >
        <referenceFile >resistor_icon_220.svg</referenceFile>
    </desc>
    <g gorn="0.1"  id="icon">
        <path gorn="0.1.0" fill="#8C8C8C" d="M28.147,31.763V18.306c-0.004-0.464-0.115-0.646-0.201-0.735l0,0c-0.089-0.085-0.268-0.215-0.81-0.221l0,0&#xd;&#xa;&#x9;&#x9;H4.581C4.276,17.348,4.082,17.389,4,17.42l0,0c-0.074,0.016-0.058,0.028-0.062,0.026l0,0c0,0-0.012,0.013-0.031,0.076l0,0&#xd;&#xa;&#x9;&#x9;c-0.027,0.08-0.058,0.249-0.058,0.503l0,0v13.737H1.149V18.025c-0.002-0.878,0.193-1.811,0.898-2.505l0,0&#xd;&#xa;&#x9;&#x9;c0.708-0.686,1.636-0.872,2.534-0.872l0,0h22.556c1.032-0.006,2.037,0.315,2.735,1.03l0,0c0.7,0.712,0.982,1.683,0.977,2.626l0,0&#xd;&#xa;&#x9;&#x9;l0.002,13.457H28.147L28.147,31.763z"  id="pins"/>
        <path gorn="0.1.1" fill="#D9B477" d="M9.661,12.124c-0.45-0.205-1.224-0.373-1.719-0.373H5.453c-0.495,0-0.9,0.405-0.9,0.9v6.697&#xd;&#xa;&#x9;&#x9;c0,0.495,0.405,0.9,0.9,0.9h2.488c0.495,0,1.269-0.168,1.719-0.373l0.092-0.042c0.451-0.205,1.224-0.373,1.719-0.373h8.981&#xd;&#xa;&#x9;&#x9;c0.494,0,1.268,0.168,1.719,0.373l0.094,0.042c0.45,0.205,1.224,0.373,1.719,0.373h2.488c0.494,0,0.9-0.405,0.9-0.9v-6.697&#xd;&#xa;&#x9;&#x9;c0-0.495-0.406-0.9-0.9-0.9h-2.488c-0.495,0-1.27,0.167-1.719,0.372l-0.094,0.042c-0.45,0.205-1.225,0.372-1.719,0.372h-8.981&#xd;&#xa;&#x9;&#x9;c-0.495,0-1.269-0.167-1.719-0.372L9.661,12.124z"  id="body"/>
        <rect gorn="0.1.2" fill="#AD9F4E" width="0.871" x="24.383" y="11.751"  height="8.498" id="gold_band"/>
        <path gorn="0.1.3" fill="#C40808" d="M10.141,12.309c-0.144-0.044-0.275-0.093-0.388-0.144l-0.092-0.041c-0.45-0.205-1.224-0.373-1.719-0.373&#xd;&#xa;&#x9;&#x9;H7.833v8.498h0.109c0.495,0,1.269-0.168,1.719-0.373l0.092-0.042c0.112-0.051,0.244-0.1,0.388-0.145V12.309z"  id="band_1_st"/>
        <rect gorn="0.1.4" fill="#C40808" width="2.309" x="12.449" y="12.537"  height="6.924" id="band_2_nd"/>
        <rect gorn="0.1.5" fill="#8A3D06" width="2.309" x="17.067" y="12.537"  height="6.924" id="band_3_rd_multiplier"/>
        <path gorn="0.1.6" d="M26.49,16.613L26.49,16.613c0,0.479-0.164,0.871-0.365,0.871h-2.407c-0.479,0-1.226-0.069-1.662-0.152&#xd;&#xa;&#x9;&#x9;l-0.089-0.018c-0.437-0.082-1.186-0.15-1.664-0.15h-8.682c-0.478,0-1.226,0.068-1.662,0.15L9.87,17.332&#xd;&#xa;&#x9;&#x9;c-0.435,0.083-1.183,0.152-1.662,0.152H7.815H6.566H6.183c-0.479,0-0.87,0.365-0.87,0.81v0.304v0.197v0.22&#xd;&#xa;&#x9;&#x9;c0,0.446,0.391,0.811,0.87,0.811h2.025c0.479,0,1.227-0.151,1.662-0.335l0.089-0.037c0.436-0.186,1.184-0.336,1.662-0.336h8.682&#xd;&#xa;&#x9;&#x9;c0.479,0,1.228,0.15,1.664,0.336l0.089,0.037c0.437,0.184,1.183,0.335,1.662,0.335h2.784c0.479,0,0.871-0.364,0.871-0.811v-0.679&#xd;&#xa;&#x9;&#x9;v-1.218v-2.307C27.025,14.961,26.49,15.336,26.49,16.613z"  id="Shadow" opacity="0.3"/>
        <rect gorn="0.1.7" width="0.871" x="24.383" y="15.861"  height="3.938" id="ShadowExtra" opacity="0.4"/>
        <path gorn="0.1.8" fill="#FFFFFF" d="M21.541,12.863c0.29,0,0.613-0.127,0.83-0.213c0.251-0.1,0.717-0.183,1.209-0.183h1.828&#xd;&#xa;&#x9;&#x9;c0.281,0,0.281,0.31,0.281,0.464s-0.014,0.478-0.281,0.478h-3.823c-0.136,0-0.283-0.141-0.283-0.281&#xd;&#xa;&#x9;&#x9;C21.302,13.031,21.388,12.863,21.541,12.863z"  id="ReflexRight" opacity="0.25"/>
        <circle gorn="0.1.9" cx="5.606" cy="12.923" r="0.541" fill="#FFFFFF"  id="ReflexLeft" opacity="0.35"/>
        <rect gorn="0.1.10" fill="#FFFF33" width="0.871" x="24.383" y="12.036"  height="2.025" id="Reflex_gold" opacity="0.5"/>
        <rect gorn="0.1.11" fill="#FFFFFF" width="0.871" x="24.383" y="12.486"  height="0.938" id="Reflex_extra" opacity="0.5"/>
    </g>
</svg>
